<svg width="1200" height="760" viewBox="0 0 1200 760" fill="none" xmlns="http://www.w3.org/2000/svg" role="img" aria-labelledby="title desc">
  <title id="title">Data, evidence and edge systems</title>
  <desc id="desc">A technical workspace with a data chart, empirical model plot and embedded circuit board.</desc>
  <rect width="1200" height="760" fill="#0D151C"/>
  <g opacity="0.32" stroke="#36505C" stroke-width="1">
    <path d="M0 80H1200M0 160H1200M0 240H1200M0 320H1200M0 400H1200M0 480H1200M0 560H1200M0 640H1200"/>
    <path d="M80 0V760M160 0V760M240 0V760M320 0V760M400 0V760M480 0V760M560 0V760M640 0V760M720 0V760M800 0V760M880 0V760M960 0V760M1040 0V760M1120 0V760"/>
  </g>
  <rect x="54" y="55" width="1092" height="650" rx="3" fill="#111E26" stroke="#42616C"/>
  <path d="M54 112H1146" stroke="#42616C"/>
  <circle cx="81" cy="83" r="7" fill="#E16B3A"/><circle cx="105" cy="83" r="7" fill="#BD8A35"/><circle cx="129" cy="83" r="7" fill="#4F795E"/>
  <text x="169" y="89" fill="#9BAEB5" font-family="monospace" font-size="17" letter-spacing="2">GAVIN / APPLIED LAB</text>
  <text x="1067" y="89" fill="#6F8992" font-family="monospace" font-size="13">01—03</text>

  <rect x="92" y="160" width="310" height="235" fill="#142B34" stroke="#2C6976"/>
  <text x="115" y="190" fill="#62D6D8" font-family="monospace" font-size="13" letter-spacing="2">PYTHON / DATA</text>
  <path d="M124 351H367M124 351V220" stroke="#5D8994"/>
  <path d="M135 324L174 305L210 315L247 270L285 286L320 240L358 255" stroke="#62D6D8" stroke-width="4" stroke-linecap="round" stroke-linejoin="round"/>
  <path d="M135 324L174 305L210 315L247 270L285 286L320 240L358 255V351H135Z" fill="#62D6D8" opacity="0.09"/>
  <circle cx="174" cy="305" r="5" fill="#E16B3A"/><circle cx="247" cy="270" r="5" fill="#E16B3A"/><circle cx="320" cy="240" r="5" fill="#E16B3A"/>
  <text x="115" y="375" fill="#8CA2A9" font-family="monospace" font-size="12">stream / clean / explain</text>

  <rect x="445" y="160" width="310" height="235" fill="#332A20" stroke="#846744"/>
  <text x="468" y="190" fill="#F0BF6A" font-family="monospace" font-size="13" letter-spacing="2">R / EVIDENCE</text>
  <path d="M483 351H720M483 351V220" stroke="#9B815C"/>
  <g fill="#F0BF6A"><circle cx="502" cy="325" r="5"/><circle cx="536" cy="300" r="5"/><circle cx="577" cy="306" r="5"/><circle cx="612" cy="274" r="5"/><circle cx="654" cy="265" r="5"/><circle cx="694" cy="235" r="5"/></g>
  <path d="M492 330L707 228" stroke="#E16B3A" stroke-width="4" stroke-linecap="round"/>
  <text x="468" y="375" fill="#B4A286" font-family="monospace" font-size="12">question / model / robust</text>

  <rect x="798" y="160" width="310" height="235" fill="#162839" stroke="#43677E"/>
  <text x="821" y="190" fill="#8FD4DA" font-family="monospace" font-size="13" letter-spacing="2">EDGE / DEVICE</text>
  <rect x="850" y="220" width="205" height="115" rx="3" fill="#1C3A4A" stroke="#75C3C7"/>
  <path d="M873 238H1033M873 318H1033M882 220V335M1024 220V335" stroke="#75C3C7" stroke-dasharray="4 6"/>
  <path d="M899 277H1008M954 242V315" stroke="#E16B3A" stroke-width="4"/>
  <circle cx="899" cy="277" r="9" fill="#E16B3A"/><circle cx="1008" cy="277" r="9" fill="#67D7D2"/>
  <text x="821" y="375" fill="#91A9B4" font-family="monospace" font-size="12">sense / infer / respond</text>

  <path d="M247 492H954" stroke="#42616C" stroke-dasharray="5 9"/>
  <circle cx="247" cy="492" r="8" fill="#62D6D8"/><circle cx="600" cy="492" r="8" fill="#F0BF6A"/><circle cx="954" cy="492" r="8" fill="#E16B3A"/>
  <text x="205" y="533" fill="#A5B6BB" font-family="monospace" font-size="14">DATA</text>
  <text x="555" y="533" fill="#A5B6BB" font-family="monospace" font-size="14">MODEL</text>
  <text x="915" y="533" fill="#A5B6BB" font-family="monospace" font-size="14">DEVICE</text>
  <path d="M247 492L600 492L954 492" stroke="#E16B3A" stroke-width="2" opacity="0.8"/>
  <text x="92" y="642" fill="#6F8992" font-family="monospace" font-size="15" letter-spacing="2">BUILD WITH EVIDENCE</text>
  <text x="1108" y="642" text-anchor="end" fill="#6F8992" font-family="monospace" font-size="15">GAVIN / 2026</text>
</svg>
